<?xml version="1.0" encoding="UTF-8" standalone="no"?>
<svg
   xmlns:dc="http://purl.org/dc/elements/1.1/"
   xmlns:cc="http://creativecommons.org/ns#"
   xmlns:rdf="http://www.w3.org/1999/02/22-rdf-syntax-ns#"
   xmlns:svg="http://www.w3.org/2000/svg"
   xmlns="http://www.w3.org/2000/svg"
   xmlns:sodipodi="http://sodipodi.sourceforge.net/DTD/sodipodi-0.dtd"
   xmlns:inkscape="http://www.inkscape.org/namespaces/inkscape"
   version="1.1"
   id="svg833"
   width="308.44629"
   height="349.64673"
   viewBox="0 0 308.44629 349.64672"
   sodipodi:docname="GlitchRock Logo Black.svg"
   inkscape:version="1.0.1 (3bc2e813f5, 2020-09-07)">
  <metadata
     id="metadata839">
    <rdf:RDF>
      <cc:Work
         rdf:about="">
        <dc:format>image/svg+xml</dc:format>
        <dc:type
           rdf:resource="http://purl.org/dc/dcmitype/StillImage" />
        <dc:title />
      </cc:Work>
    </rdf:RDF>
  </metadata>
  <defs
     id="defs837" />
  <sodipodi:namedview
     pagecolor="#ffffff"
     bordercolor="#666666"
     borderopacity="1"
     objecttolerance="10"
     gridtolerance="10"
     guidetolerance="10"
     inkscape:pageopacity="0"
     inkscape:pageshadow="2"
     inkscape:window-width="3840"
     inkscape:window-height="2093"
     id="namedview835"
     showgrid="false"
     inkscape:zoom="2.8614865"
     inkscape:cx="152.07792"
     inkscape:cy="178.19072"
     inkscape:window-x="-9"
     inkscape:window-y="-9"
     inkscape:window-maximized="1"
     inkscape:current-layer="g882"
     inkscape:document-rotation="0" />
  <g
     inkscape:groupmode="layer"
     inkscape:label="Cyan"
     id="g882"
     style="display:inline"
     transform="translate(6.1747391,4.1150687)"
     sodipodi:insensitive="true">
    <path
       style="fill:#00ffff;stroke-width:0.11165"
       d="M 77.225201,301.36487 3.9220779,259.20438 V 173.63003 88.055689 L 75.273644,47.017032 C 114.51701,24.44577 147.71586,5.3957803 149.04889,4.6837202 l 2.42367,-1.2946543 1.61481,0.8907858 c 0.88814,0.4899323 34.05339,19.5372603 73.70055,42.3273923 l 72.08576,41.436609 v 85.586297 85.58631 l -61.98866,35.63911 c -34.09376,19.60151 -67.10421,38.57385 -73.35657,42.16075 -6.25235,3.5869 -11.73515,6.51879 -12.18401,6.51533 -0.44887,-0.003 -33.80252,-18.97851 -74.119239,-42.16678 z M 216.26636,284.36136 279.22183,248.04427 V 173.63348 99.2227 l -58.08599,-33.496526 -58.08598,-33.496532 -0.21195,9.308776 c -0.11657,5.119823 -0.31864,38.108292 -0.44905,73.307702 -0.1304,35.19941 -0.31491,64.50166 -0.41001,65.11612 -0.16792,1.08484 -2.00082,2.16065 -63.28903,37.14727 -53.891569,30.76422 -63.115998,36.14191 -63.11542,36.79522 5.22e-4,0.57014 0.643173,1.17376 2.521698,2.36849 1.386561,0.88185 26.859742,15.66312 56.60707,32.84729 35.565762,20.54531 54.562462,31.33021 55.477332,31.49586 0.76522,0.13856 1.78258,0.2092 2.26084,0.157 0.47825,-0.0523 29.19951,-16.43761 63.82502,-36.41201 z M 56.96467,215.3651 c 57.69508,-33.27548 81.19637,-46.91284 82.13576,-47.66184 l 0.99329,-0.79197 0.12327,-55.4234 c 0.0678,-30.482866 0.0104,-60.787368 -0.12746,-67.343335 l -0.25074,-11.91994 -1.43773,0.833708 c -0.79074,0.458539 -26.95034,15.535299 -58.132432,33.503913 L 23.573923,99.23244 23.349188,135.38663 c -0.123605,19.88481 -0.299854,50.34651 -0.391666,67.69269 l -0.166932,31.5385 4.3916,-2.3043 c 2.41538,-1.26736 15.817496,-8.89415 29.78248,-16.94842 z"
       id="path880" />
  </g>
  <g
     inkscape:groupmode="layer"
     inkscape:label="Magenta"
     id="g860"
     transform="translate(4.0779221,8.222984)"
     style="display:inline"
     sodipodi:insensitive="true">
    <path
       style="fill:#ff00ff;stroke-width:0.11172"
       d="M 71.271357,293.33832 -2.0779221,251.15128 V 165.52305 79.894825 L 69.318571,38.830327 C 108.58665,16.244854 141.8064,-2.8171315 143.14027,-3.5296399 l 2.4252,-1.2954693 1.61582,0.8913465 c 0.8887,0.4902407 34.07483,19.5495617 73.74696,42.3540437 l 72.13115,41.4627 v 85.640189 85.6402 l -62.02769,35.66155 c -34.11523,19.61386 -67.14647,38.59814 -73.40276,42.1873 -6.25628,3.58915 -11.74254,6.5229 -12.19169,6.51943 -0.44914,-0.003 -33.8238,-18.99046 -74.165903,-42.19333 z M 210.40006,276.3241 273.39518,239.98414 V 165.52651 91.068874 L 215.27261,57.55125 157.15006,24.033627 l -0.21208,9.314636 c -0.11665,5.123048 -0.31884,38.132288 -0.44934,73.353857 -0.13048,35.22157 -0.31511,64.54228 -0.41027,65.15713 -0.16802,1.08552 -2.00208,2.16201 -63.328874,37.17065 -53.925507,30.78359 -63.155744,36.16467 -63.155166,36.8184 5.22e-4,0.57049 0.643578,1.17449 2.523286,2.36997 1.387435,0.88241 26.876655,15.67299 56.642715,32.86798 35.588159,20.55825 54.596819,31.34994 55.512269,31.51569 0.76569,0.13864 1.7837,0.20933 2.26225,0.1571 0.47856,-0.0523 29.2179,-16.44796 63.86521,-36.43494 z M 50.998069,207.2844 c 57.731401,-33.29644 81.247491,-46.94238 82.187481,-47.69185 l 0.99391,-0.79247 0.12335,-55.4583 c 0.0678,-30.502059 0.0105,-60.825643 -0.12754,-67.385738 l -0.25089,-11.927446 -1.43864,0.834233 C 131.6945,25.321657 105.51842,40.40791 74.316701,58.387839 L 17.586297,91.078615 17.361421,127.25557 c -0.123683,19.89733 -0.300044,50.37821 -0.391913,67.73531 l -0.167037,31.55836 4.394365,-2.30575 c 2.416901,-1.26816 15.827456,-8.89975 29.801233,-16.95909 z"
       id="path858" />
  </g>
  <g
     inkscape:groupmode="layer"
     inkscape:label="White"
     id="g841"
     style="display:inline"
     transform="translate(4.0779221,8.222984)"
     sodipodi:insensitive="true">
    <g
       id="g114545"
       transform="matrix(0.99693113,0,0,0.99693113,-75.943947,-12.90005)"
       style="fill:#ffffff">
      <path
         style="fill:#ffffff;fill-opacity:1;stroke-width:1.33333"
         d="m 151.97556,309.14906 -73.638761,-42.3478 0.0061,-86 0.0061,-86.000003 72.931061,-41.952382 72.93107,-41.952381 h 2.06991 2.0699 l 72.93107,41.952381 72.93107,41.952382 0.005,86.000003 0.005,86 -72.30416,41.58345 -72.30417,41.58345 -2,0.76436 -2,0.76436 -73.63877,-42.34782 z m 139.7299,-17.1776 63.90887,-36.8298 v -74.33319 -74.3332 l -59,-34.022545 -59,-34.022551 -0.39629,74.852206 -0.39628,74.85221 -64.10475,36.61402 -64.10474,36.61401 2.97694,1.97661 2.97694,1.97663 54.85743,31.68113 54.85742,31.68113 1.7578,0.0616 1.7578,0.0616 63.90886,-36.82981 z m -130.7578,-86.19936 54,-31.20617 0.34554,-68.37701 0.34552,-68.377005 -3.01219,1.907483 -3.0122,1.907481 L 153.281,74.051486 96.947665,106.47609 v 67.85636 67.85634 l 4.999995,-2.60525 5,-2.60525 z"
         id="path114561" />
      <path
         style="fill:#ffffff;fill-opacity:1;stroke-width:1.33333"
         d="m 152.00109,309.11013 -73.613249,-42.30887 -5.33e-4,-86 L 78.386774,94.801257 152.33389,52.336044 226.281,9.8708327 300.2281,52.336044 374.17522,94.801257 v 86.000003 86 l -73.71813,42.33333 -73.71812,42.33334 -0.56232,-0.0244 -0.56232,-0.0245 z m 139.61324,-16.91258 63.33333,-36.55126 V 180.81235 105.97841 L 296.281,72.141798 l -58.66667,-33.83661 -0.66667,74.851922 -0.66666,74.85192 -63.33334,36.33575 -63.33333,36.33575 0.20213,1.06036 0.20212,1.06037 57.13121,32.97332 57.13121,32.97331 2,4.7e-4 2,4.6e-4 z m -136.46593,-82.91626 57.1326,-32.85331 1.67904,-1.54001 1.67902,-1.54002 -0.34569,-67.52125 -0.34571,-67.521256 -58.66666,33.836261 -58.666669,33.836255 -0.345441,68.07833 -0.345441,68.0783 h 0.546181 0.546181 z"
         id="path114559" />
      <path
         style="fill:#ffffff;fill-opacity:1;stroke-width:1.33333"
         d="M 152.281,309.04505 78.947665,266.69789 V 180.81942 94.940961 L 152.61433,52.428871 226.281,9.9167812 l 73.66666,42.5120898 73.66667,42.51209 v 85.878459 85.87847 L 300.281,309.04505 226.94766,351.3922 h -0.66666 -0.66667 z m 138.20772,-16.10254 64.45894,-37.19206 V 180.79702 105.84358 L 296.281,72.005674 237.61433,38.167766 l -0.66667,74.818214 -0.66666,74.8182 -35.33334,20.31156 -35.33333,20.31155 -28.89846,16.60478 -28.89846,16.60479 58.89846,34.13477 58.89846,34.13477 0.20772,0.11413 0.20773,0.11413 64.45894,-37.19208 z m -133.03215,-84.80792 58.05167,-33.33333 0.0531,-68.36758 0.053,-68.36757 -3.66667,1.931124 -3.66666,1.931124 -55.33334,31.960531 -55.333329,31.960531 -0.345504,68.25776 -0.345504,68.25775 1.240786,-0.4485 1.240784,-0.4485 z"
         id="path114557" />
      <path
         style="fill:#ffffff;fill-opacity:1;stroke-width:1.33333"
         d="M 152.281,308.9725 78.947665,266.60719 V 180.80081 94.994407 l 73.666665,-42.469429 73.66667,-42.46943 73.66666,42.46943 73.66667,42.469429 v 85.821253 85.82125 l -73.33333,42.34924 -73.33334,42.34926 -0.66666,10e-4 -0.66667,10e-4 z m 138.26662,-15.98149 64.40004,-37.1436 V 180.80499 105.76258 L 296.281,71.914901 237.61433,38.067224 l -0.66667,74.862446 -0.66666,74.86244 -61.33334,35.24804 -61.33333,35.24803 -3.04813,1.65236 -3.04813,1.65235 59.04813,34.1678 59.04813,34.16779 0.26663,0.10306 0.26662,0.10307 64.40004,-37.14359 z m -132.99398,-84.85642 57.98242,-33.33333 0.0391,-68.36043 0.0391,-68.360438 -5,2.612442 -5,2.612441 -54,31.233415 -53.999999,31.23342 -0.345504,68.2964 -0.345504,68.29642 1.323948,-0.4485 1.323948,-0.4485 z"
         id="path114555" />
      <path
         style="fill:#ffffff;fill-opacity:1;stroke-width:1.33333"
         d="M 152.281,308.88079 78.947665,266.46354 V 180.80099 95.138444 L 152.61433,52.657123 226.281,10.175802 l 73.66666,42.481321 73.66667,42.481321 v 85.664006 85.664 l -72.66667,41.96162 -72.66666,41.96165 -1.33334,0.45417 -1.33333,0.45417 z m 138.66666,-15.88766 64,-36.99879 V 180.80129 105.60825 L 296.44094,71.871418 237.93422,38.13459 h -0.48217 -0.48219 l -0.34442,74.75349 -0.34444,74.75349 -62.66667,36.0011 -62.66667,36.00111 -1.75761,1.01597 -1.75761,1.01598 59.09094,34.15597 59.09095,34.15598 0.66667,0.003 0.66666,0.003 64,-36.99879 z m -133.84266,-84.5252 58.45741,-33.66667 0.026,-68.33334 0.026,-68.33333 h -0.49328 -0.49328 l -58.50672,33.736607 -58.506719,33.736603 -0.345441,68.26339 -0.345441,68.2634 h 0.862064 0.862064 z"
         id="path114553" />
      <path
         style="fill:#ffffff;fill-opacity:1;stroke-width:1.33333"
         d="M 152.281,308.7867 78.947665,266.33749 V 180.80214 95.266797 L 152.61433,52.777272 226.281,10.287748 l 73.66666,42.489524 73.66667,42.489525 v 85.534463 85.53447 l -73.79944,42.56609 -73.79944,42.56611 -0.20056,-0.116 -0.20056,-0.116 -73.33333,-42.44922 z m 138.66666,-15.70373 64,-36.98182 v -75.2995 -75.29951 l -58,-33.593956 -58,-33.593953 -1,-0.08982 -1,-0.08982 v 74.516989 74.517 l -64.62997,37.07525 -64.62998,37.07526 0.69463,0.69462 0.69464,0.69464 58.26868,33.6789 58.26867,33.67889 0.66667,-6.8e-4 0.66666,-6.8e-4 z M 215.61433,106.48706 V 38.13459 l -1,0.102373 -1,0.102387 -58,33.567244 -57.999999,33.567246 -0.34527,68.87842 -0.34527,68.87841 59.345269,-34.19557 59.34527,-34.19556 z"
         id="path114551" />
      <path
         style="fill:#ffffff;fill-opacity:1;stroke-width:1.33333"
         d="M 151.94766,308.5247 78.280998,265.88154 V 180.80281 95.724067 L 152.281,53.064005 l 74,-42.660063 74,42.660063 74,42.660062 v 85.084723 85.08474 l -73.58195,42.45386 -73.58195,42.45387 -0.75138,0.18331 -0.75139,0.18331 z m 139.1885,-15.39011 64.38133,-37 -0.001,-75.33333 -10e-4,-75.33334 -57.99016,-33.33333 -57.99016,-33.333334 -1.29326,-0.444444 -1.29358,-0.444445 v 74.583823 74.58382 l -64.70852,37.08542 -64.70853,37.08544 1.04186,0.97963 1.04186,0.97963 58,33.44316 58,33.44317 0.57025,0.0191 0.57024,0.0191 z M 189.281,190.09443 215.61433,174.90787 V 106.41012 37.912367 l -1.29327,0.444445 -1.29326,0.444444 -57.99016,33.333334 -57.990165,33.33333 -0.04991,68.92089 -0.0499,68.92088 32.999995,-19.01435 33,-19.01433 z"
         id="path114549" />
      <path
         style="fill:#ffffff;fill-opacity:1;stroke-width:1.33333"
         d="M 151.281,307.89569 78.280998,265.74838 V 180.80062 95.852851 L 151.48997,53.660386 224.69894,11.467922 h 1.58206 1.58205 l 73.20897,42.192464 73.20898,42.192465 v 84.948729 84.94873 l -73.18864,42.19215 -73.18864,42.19214 -1.81136,-0.0458 -1.81136,-0.0458 z m 141.26097,-15.4956 63.02261,-36.2655 5.9e-4,-75.33333 6e-4,-75.33334 -58.51951,-33.666663 -58.5195,-33.666667 h -0.78955 -0.78955 v 74.37879 74.37879 l -64.72726,37.16061 -64.72727,37.16061 1.0606,1.04208 1.0606,1.04207 58,33.42899 58,33.42897 1.95252,-0.74497 1.95252,-0.74496 z M 162.66888,205.59801 215.61433,175.06142 V 106.59801 38.13459 h -0.78955 -0.78954 l -58.51951,33.666667 -58.519504,33.666663 -0.02428,69.02698 -0.02428,69.02697 6.387884,-3.69364 6.38788,-3.69364 z"
         id="path114547" />
    </g>
  </g>
</svg>
